<svg xmlns="http://www.w3.org/2000/svg" viewBox="0 0 24 24">
  <!-- Outer calendar -->
  <path d="M7 2a1 1 0 0 1 1 1v1h8V3a1 1 0 1 1 2 0v1h1a3 3 0 0 1 3 3v13a3 3 0 0 1-3 3H5a3 3 0 0 1-3-3V7a3 3 0 0 1 3-3h1V3a1 1 0 0 1 1-1Zm12 7H5v11a1 1 0 0 0 1 1h12a1 1 0 0 0 1-1V9ZM6 6a1 1 0 0 0-1 1v1h14V7a1 1 0 0 0-1-1H6Z"/>
  <!-- Binding rings -->
  <path d="M7 4.5a.75.75 0 0 1 .75.75V7a.75.75 0 0 1-1.5 0V5.25A.75.75 0 0 1 7 4.5Zm10 0a.75.75 0 0 1 .75.75V7a.75.75 0 0 1-1.5 0V5.25A.75.75 0 0 1 17 4.5Z"/>
  <!-- Date dots (3x2) -->
  <path d="M8 12.25a1 1 0 1 1-2 0 1 1 0 0 1 2 0Zm5 0a1 1 0 1 1-2 0 1 1 0 0 1 2 0Zm5 0a1 1 0 1 1-2 0 1 1 0 0 1 2 0ZM8 16.25a1 1 0 1 1-2 0 1 1 0 0 1 2 0Zm5 0a1 1 0 1 1-2 0 1 1 0 0 1 2 0Zm5 0a1 1 0 1 1-2 0 1 1 0 0 1 2 0Z"/>
</svg>
